<svg xmlns="http://www.w3.org/2000/svg" width="1024" height="1024"><path d="M508.754 40.682c2.219.006 4.438.008 6.657.011 21.66.037 43.088.49 64.589 3.307l4.168.52C637.367 51.217 689.343 65.349 738 88l3.163 1.457C784.38 109.425 824.245 136 859.16 168.379a552.675 552.675 0 0 0 7.965 7.183c7.1 6.382 13.845 13.073 20.047 20.333 2.138 2.462 4.359 4.84 6.578 7.23 5.3 5.814 10.137 11.931 14.928 18.168a348.604 348.604 0 0 0 3.677 4.644C970.082 298.651 1001.432 393.996 1001 551l-.375 3.525C997.422 583.492 991.634 612.159 983 640l-1.007 3.266C972.506 673.68 959.673 703.242 944 731c-4.103-1.643-6.944-4.58-10.057-7.608l-1.828-1.757a2226.04 2226.04 0 0 1-6.05-5.852 21194.52 21194.52 0 0 0-4.342-4.19c-13.212-12.764-26.328-25.628-39.419-38.518-8.798-8.66-17.623-17.29-26.523-25.846a2037.551 2037.551 0 0 1-23.135-22.585c-4.049-4.014-8.12-7.997-12.258-11.918-25.083-23.81-25.083-23.81-27.228-33.532-.052-7.06 1.877-12.926 4.725-19.31 1.906-4.93 2.331-10.033 2.865-15.259.222-1.779.445-3.558.672-5.336.198-1.762.39-3.525.578-5.289l.29-2.661c.913-9.433.953-18.87.96-28.339l.002-2.669C803.164 427.671 778.329 355.743 730 301l-2.156-2.492C717.809 287.088 707.048 276.286 695 267l-3.04-2.414C631.568 216.86 554.027 197.226 478 206c-54.515 6.978-106.186 28.5-149 63l-1.741 1.386c-8.355 6.698-15.982 14.136-23.572 21.676l-2.785 2.758c-6.058 6.086-11.594 12.433-16.902 19.18l-1.633 2.059C250.87 356.205 231.957 403.029 223 453l-.548 2.953c-5.434 30.556-4.995 65.547.548 96.047l.602 3.35C234.008 611.38 258.267 662.278 296 705l1.404 1.596c11.472 12.95 24.013 24.682 37.841 35.082a599.879 599.879 0 0 1 5.263 4.025C381.758 777.121 432.563 796.461 484 802l2.647.286c8.986.86 17.958.955 26.978.964l2.453.004c18.854-.007 37.287-1.773 55.75-5.703 3.294-.572 5.84-.914 9.172-.551a42.06 42.06 0 0 1 5.695 4.96l1.636 1.617c1.807 1.791 3.59 3.604 5.376 5.417a2337.45 2337.45 0 0 1 14.355 14.393c3.644 3.675 7.306 7.334 10.966 10.996a8503.331 8503.331 0 0 1 18.394 18.476c7.868 7.927 15.755 15.834 23.648 23.736 6.776 6.784 13.543 13.576 20.309 20.37 2.18 2.188 4.362 4.376 6.544 6.563a5246.37 5246.37 0 0 1 10.248 10.307c1.256 1.265 2.514 2.529 3.774 3.79a1596.8 1596.8 0 0 1 5.122 5.161l1.532 1.527C712 927.772 712 927.772 712 930c-76.128 27.908-153.777 40.862-376 9l-3.094-1.05C316.873 932.48 301.403 926.038 286 919l-4.574-2.055C254.29 904.621 228.836 888.827 205 871c-1.128-.832-2.257-1.662-3.387-2.492-14.613-10.815-28.968-22.485-41.648-35.543-1.873-1.873-3.812-3.576-5.84-5.278-5-4.296-9.309-9.219-13.702-14.115a320.841 320.841 0 0 0-4.185-4.521c-6.34-6.755-12.153-13.801-17.781-21.157a642.388 642.388 0 0 0-4.547-5.824C99.578 763.768 87.378 744.25 76 724l-1.374-2.426C31.461 644.762 15.84 553.05 37.91 373c21.091-74.17 60.588-139.691 114.997-194.092 1.598-1.6 3.187-3.208 4.777-4.816 6.45-6.485 13.147-12.398 20.316-18.092 1.125-.947 2.244-1.9 3.355-2.863C252.205 91.863 344.51 57.04 436.562 44.812l3.505-.47c22.855-2.875 45.677-3.72 68.687-3.66z" fill="#7AA529"/><path d="M428 432c82.02-5.731 82.02-5.731 108.164-4.555l2.377.1c29.518 1.339 50.48 8.934 71.175 31.193 10.375 11.632 20.228 23.793 28.522 37.012 2.72 4.206 5.828 7.24 9.66 10.453 3.568 3.05 6.83 6.403 10.135 9.733l2.3 2.304c1.634 1.637 3.267 3.277 4.899 4.917 2.588 2.6 5.179 5.198 7.771 7.795 6.434 6.448 12.863 12.901 19.293 19.354 5.442 5.462 10.887 10.923 16.334 16.38 2.543 2.55 5.084 5.103 7.624 7.656l4.713 4.722 2.113 2.13c3.216 3.216 6.47 6.328 9.914 9.3 4.238 3.659 8.188 7.562 12.131 11.533l2.33 2.334 4.962 4.98a7310.08 7310.08 0 0 0 7.872 7.897c6.046 6.058 12.087 12.12 18.128 18.184 5.984 6.006 11.97 12.01 17.96 18.012 2.578 2.583 5.151 5.169 7.725 7.755l4.773 4.784 2.142 2.157c3.239 3.24 6.515 6.376 9.983 9.37 4.236 3.656 8.184 7.557 12.125 11.527l2.33 2.334 4.962 4.98a7310.08 7310.08 0 0 0 7.872 7.897c6.046 6.058 12.087 12.12 18.128 18.184 5.984 6.006 11.97 12.01 17.96 18.012 2.578 2.583 5.151 5.169 7.725 7.755l4.773 4.784 2.142 2.157c6.969 6.97 14.204 13.159 22.235 18.866 11.203 8.135 21.852 16.863 32.248 26.004l2.846 2.5c24.889 22.204 39.599 42.895 41.703 76.2.75 13.954.572 27.845-.049 41.8l-.102 2.342A818.818 818.818 0 0 1 993 983c-21.041 5.946-42.131 9.549-63.875 11.625l-2.479.243c-41.566 3.96-77.158-3.15-109.924-30.01-27.464-22.71-52.288-48.486-76.66-74.42l-3.149-3.347c-23.812-25.319-47.146-51.047-69.792-77.416l-2.115-2.452a825.557 825.557 0 0 1-3.81-4.451c-4.064-4.714-8.456-8.75-13.196-12.772-1.477-1.3-2.95-2.604-4.42-3.912l-2.37-2.106c-26.362-23.474-52.348-47.31-77.96-71.601-3.28-3.11-6.563-6.217-9.848-9.323l-1.98-1.872a1112.46 1112.46 0 0 0-27.88-25.413c-16.312-14.387-32.272-29.081-47.698-44.418l-1.82-1.804c-34.674-34.49-52.985-64.844-53.478-114.603-.03-27.789 2.865-55.568 7.454-82.948z" fill="#629A2F"/><path d="M428 432c22.7-2.112 45.404-3.524 68.188-4.313l2.524-.089c75.082-2.577 75.082-2.577 104.05 24.05 13.464 13.039 25.516 28.227 35.476 44.102 2.72 4.206 5.828 7.24 9.66 10.453 3.568 3.05 6.83 6.403 10.135 9.733l2.3 2.304c1.634 1.637 3.267 3.277 4.899 4.917 2.588 2.6 5.179 5.198 7.771 7.795 6.434 6.448 12.863 12.901 19.293 19.354 5.442 5.462 10.887 10.923 16.334 16.38 2.543 2.55 5.084 5.103 7.624 7.656l4.713 4.722 2.113 2.13a216.255 216.255 0 0 0 12.163 11.277c2.53 2.2 4.89 4.53 7.257 6.904l2.594 2.586C747 604 747 604 747 605H608v144l-7-6-1.979-1.696a2352.571 2352.571 0 0 1-83.404-75.087 7328.647 7328.647 0 0 0-4.657-4.39c-92.605-87.328-92.605-87.328-95.054-143.813-.26-9.329.353-18.549 1.281-27.827l.222-2.276c1.886-19.017 5.278-37.529 10.591-55.911z" fill="#F18F3B"/><path d="M608 605c21.866-2.114 43.735-3.524 65.688-4.313l2.434-.089c72.404-2.577 72.404-2.577 101.289 24.05 13.507 13.094 25.631 28.26 35.771 44.102 2.755 4.181 5.884 7.233 9.712 10.448 3.6 3.081 6.894 6.468 10.231 9.83l2.33 2.333 4.962 4.98a7310.08 7310.08 0 0 0 7.872 7.897c6.046 6.058 12.087 12.12 18.128 18.184 5.984 6.006 11.97 12.01 17.96 18.012 2.578 2.583 5.151 5.169 7.725 7.755l4.773 4.784 2.142 2.157c6.969 6.97 14.204 13.159 22.235 18.866 11.203 8.135 21.852 16.863 32.248 26.004l2.846 2.5c24.889 22.204 39.599 42.895 41.703 76.2.75 13.954.572 27.845-.049 41.8l-.102 2.342A818.818 818.818 0 0 1 993 983c-1.118-.95-2.235-1.903-3.352-2.856l-1.885-1.606c-2.915-2.543-5.568-5.323-8.26-8.097-2.002-1.953-4.028-3.77-6.15-5.588-4.36-3.803-8.444-7.833-12.51-11.947l-2.262-2.274c-3.158-3.174-6.31-6.355-9.463-9.535a7156.33 7156.33 0 0 0-6.962-7.003l-2.119-2.144a214.977 214.977 0 0 0-12.05-11.189c-3.456-3.064-6.68-6.352-9.924-9.636l-2.196-2.207c-3.062-3.079-6.12-6.164-9.177-9.248-2.248-2.267-4.5-4.531-6.753-6.795l-2.052-2.078c-3.199-3.215-6.436-6.32-9.871-9.283-4.26-3.676-8.217-7.608-12.17-11.608l-2.263-2.274c-3.158-3.174-6.31-6.355-9.463-9.535a7156.33 7156.33 0 0 0-6.962-7.003l-2.119-2.144c-3.254-3.27-6.543-6.436-10.037-9.45-4.256-3.67-8.208-7.598-12.156-11.594l-2.263-2.274c-3.158-3.174-6.31-6.355-9.463-9.535a7156.33 7156.33 0 0 0-6.962-7.003l-2.119-2.144a215.205 215.205 0 0 0-12.064-11.202c-3.375-2.99-6.525-6.197-9.692-9.404l-2.128-2.14c-2.967-2.983-5.928-5.972-8.89-8.961-2.18-2.198-4.362-4.392-6.544-6.587l-1.986-2.011c-3.148-3.164-6.34-6.215-9.72-9.131-4.18-3.61-8.07-7.461-11.95-11.389l-2.196-2.207c-3.062-3.079-6.12-6.164-9.177-9.248-2.248-2.267-4.5-4.531-6.753-6.795l-2.052-2.078c-3.199-3.215-6.436-6.32-9.871-9.283-4.26-3.676-8.217-7.608-12.17-11.608l-2.263-2.274c-3.158-3.174-6.31-6.355-9.463-9.535a7156.33 7156.33 0 0 0-6.962-7.003l-2.119-2.144a214.977 214.977 0 0 0-12.05-11.189c-3.456-3.064-6.68-6.352-9.924-9.636l-2.196-2.207c-3.062-3.079-6.12-6.164-9.177-9.248-2.248-2.267-4.5-4.531-6.753-6.795l-2.052-2.078a215.054 215.054 0 0 0-12.034-11.18c-4.128-3.606-7.972-7.513-11.854-11.38-1.515-1.505-3.041-3-4.567-4.495-.967-.96-1.933-1.921-2.899-2.883l-2.638-2.61C608 608 608 608 608 605z" fill="#80AD52"/><path d="M428 432c1.12.955 2.241 1.91 3.36 2.867l1.891 1.612c2.046 1.78 3.97 3.645 5.87 5.58l2.147 2.17 4.328 4.406 2.15 2.174 1.896 1.931c1.989 1.906 4.015 3.705 6.1 5.502 4.41 3.834 8.526 7.917 12.633 12.07l2.33 2.342c3.254 3.27 6.502 6.546 9.75 9.822 2.388 2.406 4.779 4.809 7.17 7.212l2.185 2.21c3.305 3.32 6.64 6.542 10.19 9.602 4.334 3.736 8.353 7.745 12.375 11.813l2.33 2.34c3.254 3.27 6.502 6.547 9.75 9.823 2.388 2.406 4.779 4.809 7.17 7.212l2.185 2.21a214.977 214.977 0 0 0 12.54 11.668c3.621 3.147 3.621 3.147 3.896 5.882l-.005 3.145.008 3.604-.022 3.973v4.169c.002 3.778-.01 7.557-.024 11.336-.013 3.946-.014 7.893-.016 11.84-.006 7.476-.023 14.952-.043 22.428-.022 8.51-.033 17.02-.043 25.53-.021 17.51-.056 35.018-.101 52.527l-2.79-2.435c-3.086-2.645-6.234-5.197-9.418-7.724-18.137-14.404-35.645-29.453-52.73-45.091l-2.057-1.878c-33.868-30.99-60.519-59.44-62.873-107.016-.435-11.043-.027-22.021.68-33.043l.147-2.352c1.274-19.983 3.585-39.731 7.041-59.461z" fill="#EE7913"/><path d="M550 547a1761.022 1761.022 0 0 1 52.298-2.072c8.108-.205 16.2-.482 24.297-.946 57.452-3.225 57.452-3.225 75.55 11.854 8.877 7.971 16.454 17.074 23.418 26.737 3.305 4.492 7.155 7.895 11.437 11.427 1.88 1.75 3.685 3.555 5.5 5.375l2.594 2.586C747 604 747 604 747 605H608v144l-7-6a432.277 432.277 0 0 0-5.426-4.162c-45.694-35.26-45.694-35.26-49.487-62.317-2.037-17.494-1.002-35.257.24-52.775.583-8.391.853-16.786 1.106-25.192.525-17.208 1.414-34.377 2.567-51.554z" fill="#F3E968"/><path d="M550 551c7.403 6.273 7.403 6.273 10.422 9.324l1.74 1.75 1.803 1.828 1.93 1.942c2.694 2.71 5.38 5.425 8.069 8.14 1.977 1.996 3.958 3.988 5.938 5.98l1.797 1.823c2.887 2.903 5.815 5.685 8.932 8.34l1.979 1.825c1.89 1.62 3.673 2.895 5.743 4.243 5.192 3.737 8.901 7.537 10.36 13.927 1.059 8.93.823 17.898.605 26.87-.082 3.945-.089 7.89-.104 11.835a1836.75 1836.75 0 0 1-.278 22.354c-.146 8.49-.217 16.981-.282 25.473-.135 17.45-.364 34.898-.654 52.346l-1.339-1.203c-3.545-3.122-6.933-5.715-11.137-7.922-7.286-4.077-13.95-8.724-20.462-13.938l-1.806-1.444c-15.057-12.386-23.44-27.08-25.44-46.522-1.807-19.825-1.531-39.78-1.004-59.659l.065-2.487c.575-21.636 1.63-43.233 3.123-64.825z" fill="#EFE549"/></svg>