<?xml version="1.0" encoding="UTF-8"?>
<svg version="1.1" xmlns="http://www.w3.org/2000/svg" width="220" height="220">
<path d="M0 0 C0.68542877 0.30099609 1.37085754 0.60199219 2.07705688 0.91210938 C4.34665278 1.91234849 6.606587 2.93273887 8.8671875 3.953125 C10.47230456 4.66461569 12.07811643 5.37454066 13.68457031 6.08300781 C17.15932156 7.61694129 20.63078749 9.15802324 24.10058594 10.703125 C30.08385437 13.36153622 36.08697899 15.9733338 42.09375 18.578125 C43.12658112 19.02601379 44.15941223 19.47390259 45.22354126 19.93536377 C47.29315067 20.83258168 49.36282185 21.72965713 51.43255615 22.62658691 C56.32387232 24.74727286 61.21296429 26.87305757 66.1015625 29 C66.94393463 29.36609375 67.78630676 29.7321875 68.65420532 30.109375 C69.45635468 30.45838867 70.25850403 30.80740234 71.08496094 31.16699219 C71.77056091 31.46514832 72.45616089 31.76330444 73.16253662 32.07049561 C77.02841909 33.76786177 80.88493472 35.48625521 84.7421875 37.203125 C84.83573802 54.01481463 84.90621905 70.82642271 84.94943619 87.63831329 C84.97003838 95.44483658 84.9981139 103.25119789 85.04394531 111.05761719 C85.08388515 117.86379022 85.10963734 124.6698459 85.11854148 131.47613287 C85.12374422 135.0781746 85.13592293 138.6798807 85.16510773 142.28181458 C85.19746748 146.30846885 85.19814235 150.33454415 85.19628906 154.36132812 C85.21067017 155.54816193 85.22505127 156.73499573 85.23986816 157.95779419 C85.2000359 165.96123342 83.98917735 171.10594109 78.92773438 177.49267578 C72.18666523 183.59612146 64.548609 186.72952685 56.2421875 190.078125 C53.93953733 191.03038687 51.63973724 191.98932602 49.33996582 192.94851685 C47.71866129 193.62427937 46.09649213 194.29797082 44.47351074 194.96969604 C34.32623178 199.17800922 24.28919221 203.63713184 14.2421875 208.078125 C11.57279004 209.25703178 8.90311423 210.43529163 6.23266602 211.61181641 C4.63425857 212.31604874 3.03640731 213.0215453 1.43920898 213.72851562 C-5.70291767 216.87627868 -11.26263255 218.48992111 -18.83251953 216.05175781 C-20.06678662 215.5181928 -21.29428662 214.96877949 -22.515625 214.40625 C-23.54376816 213.95475586 -23.54376816 213.95475586 -24.59268188 213.49414062 C-26.86227778 212.49390151 -29.122212 211.47351113 -31.3828125 210.453125 C-32.98792956 209.74163431 -34.59374143 209.03170934 -36.20019531 208.32324219 C-39.67494656 206.78930871 -43.14641249 205.24822676 -46.61621094 203.703125 C-52.59947937 201.04471378 -58.60260399 198.4329162 -64.609375 195.828125 C-65.64220612 195.38023621 -66.67503723 194.93234741 -67.73916626 194.47088623 C-69.80877567 193.57366832 -71.87844685 192.67659287 -73.94818115 191.77966309 C-78.83949732 189.65897714 -83.72858929 187.53319243 -88.6171875 185.40625 C-89.8807457 184.85710937 -89.8807457 184.85710937 -91.16983032 184.296875 C-91.97197968 183.94786133 -92.77412903 183.59884766 -93.60058594 183.23925781 C-94.28618591 182.94110168 -94.97178589 182.64294556 -95.67816162 182.33575439 C-99.54404409 180.63838823 -103.40055972 178.91999479 -107.2578125 177.203125 C-107.35136302 160.39143537 -107.42184405 143.57982729 -107.46506119 126.76793671 C-107.48566338 118.96141342 -107.5137389 111.15505211 -107.55957031 103.34863281 C-107.59951015 96.54245978 -107.62526234 89.7364041 -107.63416648 82.93011713 C-107.63936922 79.3280754 -107.65154793 75.7263693 -107.68073273 72.12443542 C-107.71309248 68.09778115 -107.71376735 64.07170585 -107.71191406 60.04492188 C-107.72629517 58.85808807 -107.74067627 57.67125427 -107.75549316 56.44845581 C-107.7156609 48.44501658 -106.50480235 43.30030891 -101.44335938 36.91357422 C-94.70229023 30.81012854 -87.064234 27.67672315 -78.7578125 24.328125 C-76.45516233 23.37586313 -74.15536224 22.41692398 -71.85559082 21.45773315 C-70.23428629 20.78197063 -68.61211713 20.10827918 -66.98913574 19.43655396 C-56.84185678 15.22824078 -46.80481721 10.76911816 -36.7578125 6.328125 C-34.08841504 5.14921822 -31.41873923 3.97095837 -28.74829102 2.79443359 C-27.14988357 2.09020126 -25.55203231 1.3847047 -23.95483398 0.67773438 C-15.09956302 -3.22506603 -8.88684498 -4.09314282 0 0 Z " fill="#71A70E" transform="translate(121.2578125,2.796875)"/>
<path d="M0 0 C0.92702728 -0.00043808 1.85405457 -0.00087616 2.80917358 -0.00132751 C5.87730882 0.00076469 8.94489952 0.02411627 12.01293945 0.04760742 C14.1385722 0.05320184 16.26420881 0.05747266 18.3898468 0.06047058 C23.9877081 0.07193149 29.58533633 0.10140952 35.18310547 0.13458252 C40.89392951 0.16525648 46.60479117 0.1789702 52.31567383 0.1940918 C63.52345859 0.22627791 74.73107027 0.27748942 85.9387207 0.34057617 C84.50363588 3.32386927 83.07430456 5.5268325 80.7512207 7.90307617 C80.20079102 8.48186523 79.65036133 9.0606543 79.08325195 9.65698242 C72.31524083 14.97030263 65.51598563 14.80688861 57.22387695 14.85229492 C56.01299911 14.87024612 54.80212128 14.88819733 53.55455017 14.9066925 C49.7034753 14.96068745 45.85252365 14.99465766 42.0012207 15.02807617 C39.38336506 15.06125866 36.76552565 15.09574918 34.14770508 15.1315918 C27.74482078 15.21640798 21.34192032 15.28480376 14.9387207 15.34057617 C14.91559829 26.79707633 14.89780614 38.25357098 14.88690853 49.71008968 C14.88167948 55.0292283 14.87458144 60.34835101 14.86328125 65.66748047 C14.85245315 70.79621602 14.84644404 75.92493623 14.84384346 81.05368233 C14.84198907 83.01499231 14.83836819 84.97630141 14.83299065 86.9376049 C14.82578124 89.67473065 14.82472972 92.41179215 14.82519531 95.14892578 C14.82160004 95.9681955 14.81800476 96.78746521 14.81430054 97.63156128 C14.47316571 101.28561055 14.47316571 101.28561055 15.9387207 104.34057617 C17.61414903 104.46025895 19.29457715 104.51072801 20.97412109 104.53344727 C22.04936539 104.54951019 23.12460968 104.56557312 24.23243713 104.5821228 C29.17936693 104.62651351 34.12615957 104.66767715 39.07324219 104.69067383 C41.67945305 104.70719651 44.28561929 104.73443712 46.89160156 104.77270508 C50.64843274 104.82761206 54.4041979 104.84937497 58.16137695 104.86401367 C59.32000748 104.88668304 60.478638 104.90935242 61.67237854 104.93270874 C68.68287842 104.9145004 73.60474196 104.10049465 78.9387207 99.34057617 C85.34763286 92.23615251 84.49245787 84.64953399 84.2121582 75.53979492 C84.2121582 69.75888986 84.43969564 66.17577178 88.33325195 61.71557617 C89.51297436 60.56742185 90.71267878 59.43913182 91.9387207 58.34057617 C92.7018457 57.51557617 93.4649707 56.69057617 94.2512207 55.84057617 C95.9387207 54.34057617 95.9387207 54.34057617 97.9387207 54.34057617 C98.00820388 62.37252659 98.0615231 70.40435162 98.09415722 78.43652821 C98.10981929 82.16612672 98.13106699 85.89551975 98.16503906 89.625 C98.19761389 93.22357391 98.21556964 96.82195006 98.22335243 100.42066002 C98.22889938 101.79421795 98.23973122 103.16776495 98.25591087 104.54123878 C98.27765746 106.46358324 98.27894587 108.38612632 98.27929688 110.30859375 C98.28928963 111.95073601 98.28928963 111.95073601 98.29948425 113.62605286 C97.88070988 116.77707187 97.39851324 117.43228298 94.9387207 119.34057617 C92.95375061 119.71809959 92.95375061 119.71809959 90.64990234 119.7215271 C89.77504181 119.72998657 88.90018127 119.73844604 87.99880981 119.74716187 C87.04183197 119.74108917 86.08485413 119.73501648 85.09887695 119.72875977 C83.58389114 119.7366452 83.58389114 119.7366452 82.03829956 119.74468994 C78.69245031 119.7579174 75.34707498 119.74914193 72.0012207 119.73901367 C69.68098865 119.74103361 67.36075722 119.74394438 65.04052734 119.74771118 C60.17482466 119.75213827 55.30928704 119.74569098 50.44360352 119.73168945 C44.19874431 119.71459753 37.95427188 119.72443663 31.70942688 119.74240685 C26.91741 119.7532342 22.12548519 119.74980313 17.33346558 119.74202347 C15.03050694 119.74001857 12.72754002 119.74249085 10.42459106 119.74946213 C7.20902275 119.75705921 3.99408561 119.74549642 0.77856445 119.72875977 C-0.17841339 119.73483246 -1.13539124 119.74090515 -2.12136841 119.74716187 C-3.43365921 119.73447266 -3.43365921 119.73447266 -4.77246094 119.7215271 C-5.91286583 119.71983048 -5.91286583 119.71983048 -7.0763092 119.71809959 C-9.60177568 119.23777863 -10.49609625 118.34217882 -12.0612793 116.34057617 C-12.51214275 113.58172123 -12.24320379 111.16040576 -12.0612793 108.34057617 C-10.53492337 106.81422025 -8.99568567 107.15247604 -6.8737793 107.02807617 C-2.34501198 106.56654574 0.41741466 105.34656914 3.9387207 102.34057617 C6.52408615 98.93259445 6.37654017 95.49986107 5.9387207 91.34057617 C3.73358034 87.79660059 1.76013741 85.91691056 -2.0612793 84.34057617 C-4.64660631 83.88992985 -4.64660631 83.88992985 -7.3112793 83.71557617 C-8.20331055 83.64081055 -9.0953418 83.56604492 -10.0144043 83.48901367 C-11.02760742 83.41553711 -11.02760742 83.41553711 -12.0612793 83.34057617 C-12.0881608 81.69483051 -12.10762053 80.04896204 -12.1237793 78.40307617 C-12.13538086 77.48655273 -12.14698242 76.5700293 -12.15893555 75.62573242 C-12.0612793 73.34057617 -12.0612793 73.34057617 -11.0612793 72.34057617 C-9.48090165 72.18253841 -7.89648255 72.06406513 -6.3112793 71.96557617 C-2.17952761 71.58191352 0.67808412 71.09173829 3.9387207 68.34057617 C6.5106175 64.91138045 6.4408627 61.50118131 5.9387207 57.34057617 C4.07667976 53.654341 4.07667976 53.654341 0.9387207 51.34057617 C-3.36494946 50.25163299 -7.64259558 49.71580846 -12.0612793 49.34057617 C-12.0881608 47.69483051 -12.10762053 46.04896204 -12.1237793 44.40307617 C-12.13538086 43.48655273 -12.14698242 42.5700293 -12.15893555 41.62573242 C-12.0612793 39.34057617 -12.0612793 39.34057617 -11.0612793 38.34057617 C-9.66780385 38.20856271 -8.27109478 38.10999584 -6.8737793 38.02807617 C-2.34501198 37.56654574 0.41741466 36.34656914 3.9387207 33.34057617 C6.52408615 29.93259445 6.37654017 26.49986107 5.9387207 22.34057617 C3.73358034 18.79660059 1.76013741 16.91691056 -2.0612793 15.34057617 C-4.64660631 14.88992985 -4.64660631 14.88992985 -7.3112793 14.71557617 C-8.20331055 14.64081055 -9.0953418 14.56604492 -10.0144043 14.48901367 C-11.02760742 14.41553711 -11.02760742 14.41553711 -12.0612793 14.34057617 C-12.14242035 12.57049903 -12.20053434 10.79935519 -12.2487793 9.02807617 C-12.28358398 8.04194336 -12.31838867 7.05581055 -12.35424805 6.03979492 C-12.0612793 3.34057617 -12.0612793 3.34057617 -10.79092693 1.69442272 C-7.71387207 -0.71407946 -3.75096945 -0.04610339 0 0 Z " fill="#FEFEFD" transform="translate(69.061279296875,53.659423828125)"/>
<path d="M0 0 C29.37 0 58.74 0 89 0 C86.94356834 4.11286332 84.43517539 6.96690668 81.3125 10.25 C80.21414351 11.42252152 79.11648276 12.59569519 78.01953125 13.76953125 C77.49311035 14.3310791 76.96668945 14.89262695 76.42431641 15.47119141 C71.99609103 20.22428487 67.82012919 25.20423806 63.59667969 30.13842773 C62.53751024 31.37331566 61.47568306 32.60592928 60.41113281 33.83618164 C58.18881971 36.40918386 56.01778489 38.97671673 53.953125 41.6796875 C53.39109375 42.40414062 52.8290625 43.12859375 52.25 43.875 C51.57710937 44.79925781 51.57710937 44.79925781 50.890625 45.7421875 C48.36902644 47.41977993 46.07071243 47.63780503 43.07763672 47.51220703 C39.09571449 46.53052985 36.96359566 43.55888346 34.4375 40.5 C33.87450195 39.85579102 33.31150391 39.21158203 32.73144531 38.54785156 C31.13450576 36.7144652 29.56597031 34.85982222 28 33 C26.75256608 31.58107328 25.50318512 30.16384988 24.25 28.75 C23.46882813 27.84507812 23.46882813 27.84507812 22.671875 26.921875 C20.64241927 24.58894926 18.572353 22.29488755 16.5 20 C14.99957711 18.33371403 13.49955926 16.66706322 12 15 C11.35546875 14.28457031 10.7109375 13.56914062 10.046875 12.83203125 C9.45390625 12.16558594 8.8609375 11.49914062 8.25 10.8125 C7.73953125 10.24144531 7.2290625 9.67039063 6.703125 9.08203125 C4.32079506 6.16968754 2.18697324 3.06176254 0 0 Z " fill="#65A310" transform="translate(65,173)"/>
<path d="M0 0 C2.80081889 1.35756743 5.03679516 2.67232101 7.3125 4.8125 C7.84488281 5.29332031 8.37726563 5.77414063 8.92578125 6.26953125 C10 8 10 8 9.83992004 10.30203247 C8.76935578 13.74086887 7.16942043 15.34488782 4.63549805 17.89794922 C4.18335938 18.35870346 3.7312207 18.8194577 3.26538086 19.29417419 C1.77418649 20.80799661 0.26879597 22.30668838 -1.23828125 23.8046875 C-2.28153547 24.85317703 -3.32426808 25.90218579 -4.36650085 26.95169067 C-6.54982281 29.14540971 -8.7404542 31.33149402 -10.9362793 33.51269531 C-13.7529594 36.31214958 -16.54872481 39.13149911 -19.3391695 41.95707512 C-21.48618295 44.126013 -23.64472519 46.283176 -25.80687523 48.43701553 C-26.84294066 49.47225948 -27.87515378 50.51137344 -28.90343666 51.55434799 C-30.33939272 53.00766325 -31.79296351 54.44351087 -33.24731445 55.87841797 C-34.4818914 57.11155228 -34.4818914 57.11155228 -35.7414093 58.36959839 C-38 60 -38 60 -40.12997437 59.89842224 C-43.14596517 58.44944039 -45.33712468 56.13069709 -47.67578125 53.79296875 C-48.20519821 53.27116531 -48.73461517 52.74936188 -49.28007507 52.21174622 C-50.39410394 51.10850389 -51.50420164 50.00127965 -52.6105957 48.89038086 C-54.31016027 47.18984107 -56.02994497 45.51175655 -57.75195312 43.83398438 C-58.83202715 42.75911519 -59.91084787 41.68298486 -60.98828125 40.60546875 C-61.50586502 40.10428024 -62.02344879 39.60309174 -62.55671692 39.0867157 C-63.97387695 37.64135742 -63.97387695 37.64135742 -66 35 C-65.86939565 31.17497769 -63.7241514 29.34908093 -61.0625 26.75 C-60.35222656 26.04359375 -59.64195313 25.3371875 -58.91015625 24.609375 C-57 23 -57 23 -55 23 C-53.51953125 24.50390625 -53.51953125 24.50390625 -51.8125 26.5625 C-48.12388077 30.86712282 -48.12388077 30.86712282 -44.3125 35.0625 C-43.77238281 35.65160156 -43.23226562 36.24070313 -42.67578125 36.84765625 C-41.07926249 38.21482931 -41.07926249 38.21482931 -39.13592529 37.79139709 C-36.48123777 36.80778966 -35.13970701 35.50073139 -33.14941406 33.48999023 C-32.40894836 32.74929794 -31.66848267 32.00860565 -30.90557861 31.24546814 C-30.11689392 30.44129959 -29.32820923 29.63713104 -28.515625 28.80859375 C-27.70003113 27.98875504 -26.88443726 27.16891632 -26.04412842 26.32423401 C-23.43896894 23.70227238 -20.84442921 21.07007552 -18.25 18.4375 C-16.48636631 16.65882155 -14.7220516 14.88081808 -12.95703125 13.10351562 C-8.63008597 8.7434806 -4.31181602 4.37499473 0 0 Z " fill="#FBFCF9" transform="translate(165,65)"/>
<path d="M0 0 C0.33 0 0.66 0 1 0 C1 2.97 1 5.94 1 9 C1.65226562 8.95359375 2.30453125 8.9071875 2.9765625 8.859375 C8.90195163 8.61466866 12.35446837 8.92099662 17 13 C19.6035036 15.51672015 19.96524341 16.73187771 20.4375 20.375 C19.80960887 25.57752649 17.76043907 28.44667141 13.875 31.875 C9.61408397 33.54231497 5.52032035 33.23698767 1 33 C0.67 30.69 0.34 28.38 0 26 C0.78246094 25.93941406 1.56492188 25.87882812 2.37109375 25.81640625 C3.38300781 25.73261719 4.39492188 25.64882812 5.4375 25.5625 C6.44683594 25.48128906 7.45617188 25.40007812 8.49609375 25.31640625 C10.93640779 25.26788532 10.93640779 25.26788532 12 24 C12.16666667 21 12.16666667 21 12 18 C10.26043342 16.26043342 7.8063378 16.62809614 5.4375 16.4375 C3.643125 16.293125 1.84875 16.14875 0 16 C0 10.72 0 5.44 0 0 Z " fill="#61A113" transform="translate(56,128)"/>
<path d="M0 0 C0.33 0 0.66 0 1 0 C1 3.63 1 7.26 1 11 C3.3203125 10.9071875 3.3203125 10.9071875 5.6875 10.8125 C11.53037466 10.82898202 14.13768445 12.18801731 18.3125 16.25 C20.51655907 19.84179997 20.58324027 21.8444131 20 26 C17.89062506 29.99274542 16.24177044 32.41670027 12 34 C8.984375 34.1953125 8.984375 34.1953125 5.75 34.125 C4.67234375 34.10695312 3.5946875 34.08890625 2.484375 34.0703125 C1.66453125 34.04710937 0.8446875 34.02390625 0 34 C0 32.02 0 30.04 0 28 C0.78246094 27.93941406 1.56492188 27.87882812 2.37109375 27.81640625 C3.38300781 27.73261719 4.39492188 27.64882812 5.4375 27.5625 C6.44683594 27.48128906 7.45617188 27.40007812 8.49609375 27.31640625 C10.93640779 27.26788532 10.93640779 27.26788532 12 26 C12.16666667 23 12.16666667 23 12 20 C10.26043342 18.26043342 7.8063378 18.62809614 5.4375 18.4375 C3.643125 18.293125 1.84875 18.14875 0 18 C0 12.06 0 6.12 0 0 Z " fill="#61A115" transform="translate(56,92)"/>
<path d="M0 0 C1.19496094 -0.00386719 1.19496094 -0.00386719 2.4140625 -0.0078125 C3.24679688 -0.00007812 4.07953125 0.00765625 4.9375 0.015625 C5.77023438 0.00789062 6.60296875 0.00015625 7.4609375 -0.0078125 C8.25757813 -0.00523437 9.05421875 -0.00265625 9.875 0 C10.60589844 0.00225586 11.33679688 0.00451172 12.08984375 0.00683594 C13.9375 0.265625 13.9375 0.265625 15.9375 2.265625 C16.1875 5.265625 16.1875 5.265625 15.9375 8.265625 C13.57181778 10.63130722 13.08517774 10.52134204 9.875 10.53125 C8.68003906 10.53511719 8.68003906 10.53511719 7.4609375 10.5390625 C6.62820312 10.53132812 5.79546875 10.52359375 4.9375 10.515625 C4.10476562 10.52335938 3.27203125 10.53109375 2.4140625 10.5390625 C1.61742187 10.53648437 0.82078125 10.53390625 0 10.53125 C-0.73089844 10.52899414 -1.46179687 10.52673828 -2.21484375 10.52441406 C-4.0625 10.265625 -4.0625 10.265625 -6.0625 8.265625 C-6.3125 5.265625 -6.3125 5.265625 -6.0625 2.265625 C-3.69681778 -0.10005722 -3.21017774 0.00990796 0 0 Z " fill="#FEFEFD" transform="translate(53.0625,143.734375)"/>
<path d="M0 0 C1.19496094 -0.00386719 1.19496094 -0.00386719 2.4140625 -0.0078125 C3.24679688 -0.00007813 4.07953125 0.00765625 4.9375 0.015625 C5.77023438 0.00789063 6.60296875 0.00015625 7.4609375 -0.0078125 C8.25757813 -0.00523438 9.05421875 -0.00265625 9.875 0 C10.60589844 0.00225586 11.33679688 0.00451172 12.08984375 0.00683594 C13.9375 0.265625 13.9375 0.265625 15.9375 2.265625 C16.1875 5.265625 16.1875 5.265625 15.9375 8.265625 C13.57181778 10.63130722 13.08517774 10.52134204 9.875 10.53125 C8.68003906 10.53511719 8.68003906 10.53511719 7.4609375 10.5390625 C6.62820312 10.53132813 5.79546875 10.52359375 4.9375 10.515625 C4.10476562 10.52335937 3.27203125 10.53109375 2.4140625 10.5390625 C1.61742187 10.53648438 0.82078125 10.53390625 0 10.53125 C-0.73089844 10.52899414 -1.46179687 10.52673828 -2.21484375 10.52441406 C-4.0625 10.265625 -4.0625 10.265625 -6.0625 8.265625 C-6.3125 5.265625 -6.3125 5.265625 -6.0625 2.265625 C-3.69681778 -0.10005722 -3.21017774 0.00990796 0 0 Z " fill="#FEFEFD" transform="translate(53.0625,109.734375)"/>
<path d="M0 0 C1.19496094 -0.00386719 1.19496094 -0.00386719 2.4140625 -0.0078125 C3.24679688 -0.00007813 4.07953125 0.00765625 4.9375 0.015625 C5.77023438 0.00789063 6.60296875 0.00015625 7.4609375 -0.0078125 C8.25757813 -0.00523438 9.05421875 -0.00265625 9.875 0 C10.60589844 0.00225586 11.33679688 0.00451172 12.08984375 0.00683594 C13.9375 0.265625 13.9375 0.265625 15.9375 2.265625 C16.1875 5.265625 16.1875 5.265625 15.9375 8.265625 C13.57181778 10.63130722 13.08517774 10.52134204 9.875 10.53125 C8.68003906 10.53511719 8.68003906 10.53511719 7.4609375 10.5390625 C6.62820312 10.53132813 5.79546875 10.52359375 4.9375 10.515625 C4.10476562 10.52335937 3.27203125 10.53109375 2.4140625 10.5390625 C1.61742187 10.53648438 0.82078125 10.53390625 0 10.53125 C-0.73089844 10.52899414 -1.46179687 10.52673828 -2.21484375 10.52441406 C-4.0625 10.265625 -4.0625 10.265625 -6.0625 8.265625 C-6.3125 5.265625 -6.3125 5.265625 -6.0625 2.265625 C-3.69681778 -0.10005722 -3.21017774 0.00990796 0 0 Z " fill="#FEFEFD" transform="translate(53.0625,74.734375)"/>
</svg>
